<svg width="464" height="144" viewBox="0 0 464 144" fill="none" xmlns="http://www.w3.org/2000/svg">
<path d="M247 139.62C265.672 139.62 282.578 132.051 294.814 119.815C307.05 107.579 314.618 90.6731 314.618 71.9997C314.618 53.3269 307.05 36.4213 294.814 24.1852C282.578 11.949 265.672 4.38081 247 4.38081C228.326 4.38081 211.421 11.9497 199.185 24.1852C186.949 36.4213 179.381 53.3269 179.381 71.9997C179.381 90.6731 186.95 107.578 199.185 119.815C211.421 132.051 228.327 139.62 247 139.62ZM297.911 122.911C284.882 135.941 266.881 144 247 144C227.118 144 209.118 135.941 196.089 122.911C183.059 109.882 175 91.881 175 71.9997C175 52.1184 183.059 34.1183 196.089 21.0885C209.118 8.05875 227.118 0 247 0C266.881 0 284.881 8.05875 297.911 21.0885C310.941 34.1176 318.999 52.1184 318.999 71.9997C318.999 91.881 310.941 109.882 297.911 122.911Z" fill="white"/>
<path d="M240.717 68.5099V130.64C232.115 129.35 228.384 129.012 219.542 124.823V59.6665L223.963 57.5723L240.718 68.5092L240.717 68.5099Z" fill="white"/>
<path d="M240.717 68.5099V130.64C232.115 129.35 228.384 129.012 219.542 124.823V59.6665L223.963 57.5723L240.718 68.5092L240.717 68.5099Z" fill="white"/>
<path d="M279.344 40.1205V69.906L271.899 65.0195L252.119 74.0951L251.654 27.0893L256.103 24.9951L279.344 40.1205Z" fill="white"/>
<path d="M279.344 40.1205V69.906L271.899 65.0195L252.119 74.0951L251.654 27.0893L256.103 24.9951L279.344 40.1205Z" fill="white"/>
<path d="M288.653 77.8178V113.188C280.854 120.527 276.965 122.318 267.877 126.501L267.478 126.684V68.9751L271.9 66.8809L288.654 77.8178H288.653Z" fill="white"/>
<path d="M288.653 77.8178V113.188C280.854 120.527 276.965 122.318 267.877 126.501L267.478 126.684V68.9751L271.9 66.8809L288.654 77.8178H288.653Z" fill="white"/>
<path d="M251.654 75.9565L271.666 66.8809L268.641 71.7674L254.447 78.5152V130.407C253.481 130.588 252.885 130.61 251.654 130.407V75.9558L251.654 75.9565Z" fill="white"/>
<path d="M251.654 75.9565L271.666 66.8809L268.641 71.7674L254.447 78.5152V130.407C253.481 130.588 252.885 130.61 251.654 130.407V75.9558L251.654 75.9565Z" fill="white"/>
<path d="M204.183 66.6489L224.195 57.5732L220.937 62.6934L206.51 69.4411V115.98C205.464 115.425 204.94 115.035 204.183 114.118V66.6482L204.183 66.6489Z" fill="white"/>
<path d="M204.183 66.6489L224.195 57.5732L220.937 62.6934L206.51 69.4411V115.98C205.464 115.425 204.94 115.035 204.183 114.118V66.6482L204.183 66.6489Z" fill="white"/>
<path d="M230.246 36.6301L256.074 24.9951L253.05 29.8823L234.899 38.7243V61.9943L230.246 58.7369V36.6301Z" fill="white"/>
<path d="M230.246 36.6301L256.074 24.9951L253.05 29.8823L234.899 38.7243V61.9943L230.246 58.7369V36.6301Z" fill="white"/>
<path d="M36.416 106.587H32.5236C26.0649 106.587 20.7601 105.721 16.6078 103.992C10.207 101.34 5.50674 96.4674 2.50832 89.3732C1.70048 87.4707 1.08113 85.3798 0.648939 83.103C0.216746 80.8249 0 78.5616 0 76.3131C0 73.8331 0.172319 71.5846 0.518343 69.5664C0.864367 67.5481 1.52814 65.4423 2.50832 63.2518C5.50674 56.1589 10.207 51.2863 16.6078 48.6326C20.7022 46.9025 26.0083 46.0381 32.5236 46.0381H36.416V58.1476H34.5121C30.2454 58.1476 27.3614 58.2634 25.8629 58.4936C22.8645 58.9541 20.2983 60.05 18.1642 61.7801C16.9538 62.7603 15.9736 63.8563 15.2237 65.0667C14.1856 66.681 13.4936 68.5552 13.1475 70.6892H36.416V81.9343H13.1475C13.3778 84.1249 14.0712 86.1432 15.2237 87.9891C16.2039 89.5469 17.4143 90.8152 18.8563 91.7954C20.989 93.1794 23.9026 94.0156 27.593 94.3037C29.0916 94.4181 30.8796 94.476 32.9557 94.476H36.416V106.586V106.587Z" fill="white"/>
<path d="M80.5879 58.1489H67.4403V106.587H54.6388V58.1489H41.4912V46.0381H80.5879V58.1489Z" fill="white"/>
<path d="M127.124 106.587H114.322V84.9624H101.175V72.8529H114.322V66.9705C114.322 63.8576 113.602 61.4355 112.16 59.7053C110.718 57.9752 108.671 57.1095 106.018 57.1095C103.365 57.1095 101.317 57.9752 99.8768 59.7053C98.4348 61.4355 97.7132 63.8563 97.7132 66.9705V106.587H84.9116V67.7501C84.9116 60.5994 86.9878 54.9485 91.1401 50.7962C95.0042 46.9321 99.963 45 106.018 45C111.958 45 116.887 46.9321 120.809 50.7962C125.018 54.9472 127.122 60.5994 127.122 67.7501V106.587H127.124Z" fill="white"/>
<path d="M165.444 106.587H153.854C146.645 106.587 141.715 104.454 139.062 100.186C137.332 97.3599 136.468 93.1793 136.468 87.643V46.0366H149.269V87.0371C149.269 90.2657 150.135 92.3702 151.864 93.3517C152.787 93.87 154.604 94.1299 157.313 94.1299H165.444V106.585V106.587Z" fill="white"/>
<path d="M376.247 95.0473C376.247 98.6219 375.987 101.087 375.469 102.471C374.431 105.182 372.298 106.537 369.068 106.537C365.84 106.537 363.186 105.009 361.11 101.968C360.302 100.757 359.293 98.9128 358.082 96.4327L341.301 62.3379V105.587H328.5V54.7254C328.5 51.8993 328.874 49.7087 329.624 48.1523C330.95 45.3841 333.43 44 337.063 44C340.061 44 342.512 44.9519 344.416 46.8544C345.568 48.0082 346.982 50.2567 348.654 53.6012L363.446 83.8762V45.0381H376.247V95.0486V95.0473Z" fill="white"/>
<path d="M420.448 105.584H416.555C410.097 105.584 404.792 104.719 400.64 102.99C394.239 100.338 389.538 95.4649 386.54 88.3707C385.732 86.4683 385.113 84.3773 384.681 82.1006C384.249 79.8225 384.032 77.5592 384.032 75.3107C384.032 72.8306 384.204 70.5822 384.55 68.5639C384.896 66.5457 385.56 64.4399 386.54 62.2493C389.538 55.1565 394.239 50.2839 400.64 47.6302C404.734 45.9 410.04 45.0356 416.555 45.0356H420.448V57.1451H418.544C414.277 57.1451 411.393 57.2609 409.895 57.4912C406.896 57.9516 404.33 59.0476 402.196 60.7777C400.986 61.7579 400.005 62.8539 399.255 64.0643C398.217 65.6786 397.525 67.5528 397.179 69.6868H420.448V80.9319H397.179C397.41 83.1225 398.103 85.1407 399.255 86.9866C400.236 88.5444 401.446 89.8127 402.888 90.7929C405.021 92.177 407.934 93.0131 411.625 93.3012C413.123 93.4157 414.911 93.4736 416.987 93.4736H420.448V105.583V105.584Z" fill="white"/>
<path d="M463.523 89.0641C463.523 92.4086 462.802 95.2926 461.36 97.7134C459.385 101.058 456.589 103.306 452.941 104.46C450.635 105.21 447.391 105.584 443.239 105.584H425.81V93.4749H442.303C444.739 93.4749 446.469 93.3026 447.507 92.9566C449.424 92.3224 450.376 91.0528 450.376 89.1503C450.376 87.882 449.886 86.6999 448.906 85.6039C448.272 84.9119 446.052 83.3258 442.245 80.8471C438.209 78.1947 435.268 76.1468 433.423 74.7048C430.885 72.6866 429.068 70.7545 427.974 68.9099C426.532 66.5457 425.81 63.7775 425.81 60.6054C425.81 57.2609 426.646 54.319 428.318 51.7824C430.222 48.8406 432.759 46.9098 435.93 45.9875C438.064 45.3534 441.206 45.0356 445.357 45.0356H461.014V57.1451H444.406C442.676 57.1451 441.466 57.2892 440.774 57.5773C439.563 58.097 438.958 59.0772 438.958 60.5192C438.958 61.6138 439.361 62.6519 440.168 63.6321C440.802 64.4399 441.58 65.2181 442.504 65.9667C443.196 66.4864 444.868 67.581 447.521 69.2533C451.787 71.8478 454.916 73.9387 456.906 75.5248C458.896 77.1108 460.38 78.7104 461.36 80.3247C462.11 81.4785 462.658 82.833 463.004 84.3908C463.35 85.9472 463.523 87.505 463.523 89.0614V89.0641Z" fill="white"/>
</svg>
